<mxfile host="app.diagrams.net" modified="2023-09-30T11:05:07.814Z" agent="Mozilla/5.0 (Windows NT 10.0; Win64; x64) AppleWebKit/537.36 (KHTML, like Gecko) Chrome/117.0.0.0 Safari/537.36" etag="n54-H7w2AgzjEsr1_6B7" version="22.0.0" type="device">
  <diagram name="Page-1" id="j97759_7ObPXdj-vHKr0">
    <mxGraphModel dx="1221" dy="669" grid="1" gridSize="10" guides="1" tooltips="1" connect="1" arrows="1" fold="1" page="1" pageScale="1" pageWidth="850" pageHeight="1100" math="0" shadow="0">
      <root>
        <mxCell id="0" />
        <mxCell id="1" parent="0" />
        <mxCell id="r57v79FJTcpmu14MVHIr-1" value="Mulai" style="ellipse;whiteSpace=wrap;html=1;" vertex="1" parent="1">
          <mxGeometry x="100" y="60" width="80" height="40" as="geometry" />
        </mxCell>
        <mxCell id="r57v79FJTcpmu14MVHIr-2" value="" style="endArrow=classic;html=1;rounded=0;" edge="1" parent="1">
          <mxGeometry width="50" height="50" relative="1" as="geometry">
            <mxPoint x="180" y="80" as="sourcePoint" />
            <mxPoint x="240" y="80" as="targetPoint" />
          </mxGeometry>
        </mxCell>
        <mxCell id="r57v79FJTcpmu14MVHIr-3" value="Float&amp;nbsp;&lt;br&gt;Panjang,Lebar,Tinggi&lt;br&gt;Luas Permukaan,Keliling,Volume" style="shape=internalStorage;whiteSpace=wrap;html=1;backgroundOutline=1;" vertex="1" parent="1">
          <mxGeometry x="240" y="25" width="240" height="110" as="geometry" />
        </mxCell>
        <mxCell id="r57v79FJTcpmu14MVHIr-4" value="Input Panjang" style="shape=parallelogram;perimeter=parallelogramPerimeter;whiteSpace=wrap;html=1;fixedSize=1;" vertex="1" parent="1">
          <mxGeometry x="530" y="50" width="120" height="60" as="geometry" />
        </mxCell>
        <mxCell id="r57v79FJTcpmu14MVHIr-5" value="" style="endArrow=classic;html=1;rounded=0;" edge="1" parent="1">
          <mxGeometry width="50" height="50" relative="1" as="geometry">
            <mxPoint x="480" y="80" as="sourcePoint" />
            <mxPoint x="540" y="80" as="targetPoint" />
          </mxGeometry>
        </mxCell>
        <mxCell id="r57v79FJTcpmu14MVHIr-6" value="" style="endArrow=classic;html=1;rounded=0;" edge="1" parent="1">
          <mxGeometry width="50" height="50" relative="1" as="geometry">
            <mxPoint x="585" y="110" as="sourcePoint" />
            <mxPoint x="585" y="170" as="targetPoint" />
          </mxGeometry>
        </mxCell>
        <mxCell id="r57v79FJTcpmu14MVHIr-7" value="Input Lebar" style="shape=parallelogram;perimeter=parallelogramPerimeter;whiteSpace=wrap;html=1;fixedSize=1;" vertex="1" parent="1">
          <mxGeometry x="530" y="170" width="120" height="60" as="geometry" />
        </mxCell>
        <mxCell id="r57v79FJTcpmu14MVHIr-8" value="" style="endArrow=classic;html=1;rounded=0;" edge="1" parent="1">
          <mxGeometry width="50" height="50" relative="1" as="geometry">
            <mxPoint x="589.5" y="230" as="sourcePoint" />
            <mxPoint x="589.5" y="290" as="targetPoint" />
          </mxGeometry>
        </mxCell>
        <mxCell id="r57v79FJTcpmu14MVHIr-9" value="Input Tinggi" style="shape=parallelogram;perimeter=parallelogramPerimeter;whiteSpace=wrap;html=1;fixedSize=1;" vertex="1" parent="1">
          <mxGeometry x="530" y="290" width="120" height="60" as="geometry" />
        </mxCell>
        <mxCell id="r57v79FJTcpmu14MVHIr-10" value="" style="endArrow=classic;html=1;rounded=0;" edge="1" parent="1">
          <mxGeometry width="50" height="50" relative="1" as="geometry">
            <mxPoint x="540" y="319.5" as="sourcePoint" />
            <mxPoint x="460" y="319.5" as="targetPoint" />
          </mxGeometry>
        </mxCell>
        <mxCell id="r57v79FJTcpmu14MVHIr-11" value="Luas Permukaan =&amp;nbsp;2 x ((panjang x lebar) + (panjang x tinggi) + (lebar x tinggi))" style="rounded=0;whiteSpace=wrap;html=1;" vertex="1" parent="1">
          <mxGeometry x="210" y="295" width="250" height="50" as="geometry" />
        </mxCell>
        <mxCell id="r57v79FJTcpmu14MVHIr-12" value="" style="endArrow=classic;html=1;rounded=0;" edge="1" parent="1">
          <mxGeometry width="50" height="50" relative="1" as="geometry">
            <mxPoint x="334.5" y="345" as="sourcePoint" />
            <mxPoint x="334.5" y="425" as="targetPoint" />
          </mxGeometry>
        </mxCell>
        <mxCell id="r57v79FJTcpmu14MVHIr-13" value="Keliling = 4 * (panjang + lebat + tinggi)" style="rounded=0;whiteSpace=wrap;html=1;" vertex="1" parent="1">
          <mxGeometry x="222.5" y="430" width="225" height="50" as="geometry" />
        </mxCell>
        <mxCell id="r57v79FJTcpmu14MVHIr-14" value="" style="endArrow=classic;html=1;rounded=0;" edge="1" parent="1">
          <mxGeometry width="50" height="50" relative="1" as="geometry">
            <mxPoint x="334.5" y="480" as="sourcePoint" />
            <mxPoint x="334.5" y="530" as="targetPoint" />
          </mxGeometry>
        </mxCell>
        <mxCell id="r57v79FJTcpmu14MVHIr-15" value="Volume = panjang * lebar * tinggi" style="rounded=0;whiteSpace=wrap;html=1;" vertex="1" parent="1">
          <mxGeometry x="241.25" y="530" width="187.5" height="40" as="geometry" />
        </mxCell>
        <mxCell id="r57v79FJTcpmu14MVHIr-16" value="" style="endArrow=classic;html=1;rounded=0;" edge="1" parent="1">
          <mxGeometry width="50" height="50" relative="1" as="geometry">
            <mxPoint x="334.5" y="570" as="sourcePoint" />
            <mxPoint x="334.5" y="630" as="targetPoint" />
          </mxGeometry>
        </mxCell>
        <mxCell id="r57v79FJTcpmu14MVHIr-17" value="Output Luas Permukaan&lt;br&gt;Balok" style="shape=parallelogram;perimeter=parallelogramPerimeter;whiteSpace=wrap;html=1;fixedSize=1;" vertex="1" parent="1">
          <mxGeometry x="252.5" y="630" width="165" height="80" as="geometry" />
        </mxCell>
        <mxCell id="r57v79FJTcpmu14MVHIr-18" value="" style="endArrow=classic;html=1;rounded=0;" edge="1" parent="1">
          <mxGeometry width="50" height="50" relative="1" as="geometry">
            <mxPoint x="334.5" y="710" as="sourcePoint" />
            <mxPoint x="334.5" y="770" as="targetPoint" />
          </mxGeometry>
        </mxCell>
        <mxCell id="r57v79FJTcpmu14MVHIr-19" value="Output Keliling Balok" style="shape=parallelogram;perimeter=parallelogramPerimeter;whiteSpace=wrap;html=1;fixedSize=1;" vertex="1" parent="1">
          <mxGeometry x="252.5" y="770" width="165" height="80" as="geometry" />
        </mxCell>
        <mxCell id="r57v79FJTcpmu14MVHIr-20" value="Output&amp;nbsp; Volume" style="shape=parallelogram;perimeter=parallelogramPerimeter;whiteSpace=wrap;html=1;fixedSize=1;" vertex="1" parent="1">
          <mxGeometry x="252.5" y="910" width="165" height="80" as="geometry" />
        </mxCell>
        <mxCell id="r57v79FJTcpmu14MVHIr-21" value="" style="endArrow=classic;html=1;rounded=0;" edge="1" parent="1">
          <mxGeometry width="50" height="50" relative="1" as="geometry">
            <mxPoint x="334.5" y="850" as="sourcePoint" />
            <mxPoint x="334.5" y="910" as="targetPoint" />
          </mxGeometry>
        </mxCell>
        <mxCell id="r57v79FJTcpmu14MVHIr-22" value="" style="endArrow=classic;html=1;rounded=0;" edge="1" parent="1">
          <mxGeometry width="50" height="50" relative="1" as="geometry">
            <mxPoint x="407.5" y="949.5" as="sourcePoint" />
            <mxPoint x="480" y="949.5" as="targetPoint" />
          </mxGeometry>
        </mxCell>
        <mxCell id="r57v79FJTcpmu14MVHIr-23" value="Selesai" style="ellipse;whiteSpace=wrap;html=1;" vertex="1" parent="1">
          <mxGeometry x="480" y="925" width="110" height="50" as="geometry" />
        </mxCell>
      </root>
    </mxGraphModel>
  </diagram>
</mxfile>
